<?xml version="1.0" encoding="UTF-8" standalone="no"?>
<svg xmlns="http://www.w3.org/2000/svg" xmlns:xlink="http://www.w3.org/1999/xlink" contentScriptType="application/ecmascript" contentStyleType="text/css" height="774px" preserveAspectRatio="none" style="width:725px;height:774px;" version="1.1" viewBox="0 0 725 774" width="725px" zoomAndPan="magnify"><defs/><g><!--cluster Phases d'écriture, de validation, de composition\nVersionnement des fichiers avec Git\n--><path d="M25,31 C25,28 27,26 30,26 C33,26 35,28 35,31 C35,28 37,26 40,26 C43,26 45,28 45,31 C45,28 47,26 50,26 C53,26 55,28 55,31 C55,28 57,26 60,26 C63,26 65,28 65,31 C65,28 67,26 70,26 C73,26 75,28 75,31 C75,28 77,26 80,26 C83,26 85,28 85,31 C85,28 87,26 90,26 C93,26 95,28 95,31 C95,28 97,26 100,26 C103,26 105,28 105,31 C105,28 107,26 110,26 C113,26 115,28 115,31 C115,28 117,26 120,26 C123,26 125,28 125,31 C125,28 127,26 130,26 C133,26 135,28 135,31 C135,28 137,26 140,26 C143,26 145,28 145,31 C145,28 147,26 150,26 C153,26 155,28 155,31 C155,28 157,26 160,26 C163,26 165,28 165,31 C165,28 167,26 170,26 C173,26 175,28 175,31 C175,28 177,26 180,26 C183,26 185,28 185,31 C185,28 187,26 190,26 C193,26 195,28 195,31 C195,28 197,26 200,26 C203,26 205,28 205,31 C205,28 207,26 210,26 C213,26 215,28 215,31 C215,28 217,26 220,26 C223,26 225,28 225,31 C225,28 227,26 230,26 C233,26 235,28 235,31 C235,28 237,26 240,26 C243,26 245,28 245,31 C245,28 247,26 250,26 C253,26 255,28 255,31 C255,28 257,26 260,26 C263,26 265,28 265,31 C265,28 267,26 270,26 C273,26 275,28 275,31 C275,28 277,26 280,26 C283,26 285,28 285,31 C285,28 287,26 290,26 C293,26 295,28 295,31 C295,28 297,26 300,26 C303,26 305,28 305,31 C305,28 307,26 310,26 C313,26 315,28 315,31 C315,28 317,26 320,26 C323,26 325,28 325,31 C325,28 327,26 330,26 C333,26 335,28 335,31 C335,28 337,26 340,26 C343,26 345,28 345,31 C345,28 347,26 350,26 C353,26 355,28 355,31 C355,28 357,26 360,26 C363,26 365,28 365,31 C365,28 367,26 370,26 C373,26 375,28 375,31 C375,28 377,26 380,26 C383,26 385,28 385,31 C385,28 387,26 390,26 C393,26 395,28 395,31 C395,28 397,26 400,26 C403,26 405,28 405,31 C405,28 407,26 410,26 C413,26 415,28 415,31 C415,28 417,26 420,26 C423,26 425,28 425,31 C425,28 427,26 430,26 C433,26 435,28 435,31 C435,28 437,26 440,26 C443,26 445,28 445,31 C445,28 447,26 450,26 C453,26 455,28 455,31 C455,28 457,26 460,26 C463,26 465,28 465,31 C465,28 467,26 470,26 C473,26 475,28 475,31 C475,28 477,26 480,26 C483,26 485,28 485,31 C485,28 487,26 490,26 C493,26 495,28 495,31 C495,28 497,26 500,26 C503,26 505,28 505,31 C505,28 507,26 510,26 C513,26 515,28 515,31 C515,28 517,26 520,26 C523,26 525,28 525,31 C525,28 527,26 530,26 C533,26 535,28 535,31 C535,28 537,26 540,26 C543,26 545,28 545,31 C545,28 547,26 550,26 C553,26 555,28 555,31 C555,28 557,26 560,26 C563,26 565,28 565,31 C565,28 567,26 570,26 C573,26 575,28 575,31 C578,31 580,33 580,36 C580,39 578,41 575,41 C578,41 580,43 580,46 C580,49 578,51 575,51 C578,51 580,53 580,56 C580,59 578,61 575,61 C578,61 580,63 580,66 C580,69 578,71 575,71 C578,71 580,73 580,76 C580,79 578,81 575,81 C578,81 580,83 580,86 C580,89 578,91 575,91 C578,91 580,93 580,96 C580,99 578,101 575,101 C578,101 580,103 580,106 C580,109 578,111 575,111 C578,111 580,113 580,116 C580,119 578,121 575,121 C578,121 580,123 580,126 C580,129 578,131 575,131 C578,131 580,133 580,136 C580,139 578,141 575,141 C578,141 580,143 580,146 C580,149 578,151 575,151 C578,151 580,153 580,156 C580,159 578,161 575,161 C578,161 580,163 580,166 C580,169 578,171 575,171 C578,171 580,173 580,176 C580,179 578,181 575,181 C578,181 580,183 580,186 C580,189 578,191 575,191 C578,191 580,193 580,196 C580,199 578,201 575,201 C578,201 580,203 580,206 C580,209 578,211 575,211 C578,211 580,213 580,216 C580,219 578,221 575,221 C578,221 580,223 580,226 C580,229 578,231 575,231 C578,231 580,233 580,236 C580,239 578,241 575,241 C578,241 580,243 580,246 C580,249 578,251 575,251 C578,251 580,253 580,256 C580,259 578,261 575,261 C578,261 580,263 580,266 C580,269 578,271 575,271 C578,271 580,273 580,276 C580,279 578,281 575,281 C578,281 580,283 580,286 C580,289 578,291 575,291 C578,291 580,293 580,296 C580,299 578,301 575,301 C578,301 580,303 580,306 C580,309 578,311 575,311 C578,311 580,313 580,316 C580,319 578,321 575,321 C578,321 580,323 580,326 C580,329 578,331 575,331 C578,331 580,333 580,336 C580,339 578,341 575,341 C578,341 580,343 580,346 C580,349 578,351 575,351 C578,351 580,353 580,356 C580,359 578,361 575,361 C578,361 580,363 580,366 C580,369 578,371 575,371 C578,371 580,373 580,376 C580,379 578,381 575,381 C578,381 580,383 580,386 C580,389 578,391 575,391 C578,391 580,393 580,396 C580,399 578,401 575,401 C578,401 580,403 580,406 C580,409 578,411 575,411 C575,414 572,416 570,416 C567,416 565,414 565,411 C565,414 562,416 560,416 C557,416 555,414 555,411 C555,414 552,416 550,416 C547,416 545,414 545,411 C545,414 542,416 540,416 C537,416 535,414 535,411 C535,414 532,416 530,416 C527,416 525,414 525,411 C525,414 522,416 520,416 C517,416 515,414 515,411 C515,414 512,416 510,416 C507,416 505,414 505,411 C505,414 502,416 500,416 C497,416 495,414 495,411 C495,414 492,416 490,416 C487,416 485,414 485,411 C485,414 482,416 480,416 C477,416 475,414 475,411 C475,414 472,416 470,416 C467,416 465,414 465,411 C465,414 462,416 460,416 C457,416 455,414 455,411 C455,414 452,416 450,416 C447,416 445,414 445,411 C445,414 442,416 440,416 C437,416 435,414 435,411 C435,414 432,416 430,416 C427,416 425,414 425,411 C425,414 422,416 420,416 C417,416 415,414 415,411 C415,414 412,416 410,416 C407,416 405,414 405,411 C405,414 402,416 400,416 C397,416 395,414 395,411 C395,414 392,416 390,416 C387,416 385,414 385,411 C385,414 382,416 380,416 C377,416 375,414 375,411 C375,414 372,416 370,416 C367,416 365,414 365,411 C365,414 362,416 360,416 C357,416 355,414 355,411 C355,414 352,416 350,416 C347,416 345,414 345,411 C345,414 342,416 340,416 C337,416 335,414 335,411 C335,414 332,416 330,416 C327,416 325,414 325,411 C325,414 322,416 320,416 C317,416 315,414 315,411 C315,414 312,416 310,416 C307,416 305,414 305,411 C305,414 302,416 300,416 C297,416 295,414 295,411 C295,414 292,416 290,416 C287,416 285,414 285,411 C285,414 282,416 280,416 C277,416 275,414 275,411 C275,414 272,416 270,416 C267,416 265,414 265,411 C265,414 262,416 260,416 C257,416 255,414 255,411 C255,414 252,416 250,416 C247,416 245,414 245,411 C245,414 242,416 240,416 C237,416 235,414 235,411 C235,414 232,416 230,416 C227,416 225,414 225,411 C225,414 222,416 220,416 C217,416 215,414 215,411 C215,414 212,416 210,416 C207,416 205,414 205,411 C205,414 202,416 200,416 C197,416 195,414 195,411 C195,414 192,416 190,416 C187,416 185,414 185,411 C185,414 182,416 180,416 C177,416 175,414 175,411 C175,414 172,416 170,416 C167,416 165,414 165,411 C165,414 162,416 160,416 C157,416 155,414 155,411 C155,414 152,416 150,416 C147,416 145,414 145,411 C145,414 142,416 140,416 C137,416 135,414 135,411 C135,414 132,416 130,416 C127,416 125,414 125,411 C125,414 122,416 120,416 C117,416 115,414 115,411 C115,414 112,416 110,416 C107,416 105,414 105,411 C105,414 102,416 100,416 C97,416 95,414 95,411 C95,414 92,416 90,416 C87,416 85,414 85,411 C85,414 82,416 80,416 C77,416 75,414 75,411 C75,414 72,416 70,416 C67,416 65,414 65,411 C65,414 62,416 60,416 C57,416 55,414 55,411 C55,414 52,416 50,416 C47,416 45,414 45,411 C45,414 42,416 40,416 C37,416 35,414 35,411 C35,414 32,416 30,416 C27,416 25,414 25,411 C22,411 20,409 20,406 C20,403 22,401 25,401 C22,401 20,399 20,396 C20,393 22,391 25,391 C22,391 20,389 20,386 C20,383 22,381 25,381 C22,381 20,379 20,376 C20,373 22,371 25,371 C22,371 20,369 20,366 C20,363 22,361 25,361 C22,361 20,359 20,356 C20,353 22,351 25,351 C22,351 20,349 20,346 C20,343 22,341 25,341 C22,341 20,339 20,336 C20,333 22,331 25,331 C22,331 20,329 20,326 C20,323 22,321 25,321 C22,321 20,319 20,316 C20,313 22,311 25,311 C22,311 20,309 20,306 C20,303 22,301 25,301 C22,301 20,299 20,296 C20,293 22,291 25,291 C22,291 20,289 20,286 C20,283 22,281 25,281 C22,281 20,279 20,276 C20,273 22,271 25,271 C22,271 20,269 20,266 C20,263 22,261 25,261 C22,261 20,259 20,256 C20,253 22,251 25,251 C22,251 20,249 20,246 C20,243 22,241 25,241 C22,241 20,239 20,236 C20,233 22,231 25,231 C22,231 20,229 20,226 C20,223 22,221 25,221 C22,221 20,219 20,216 C20,213 22,211 25,211 C22,211 20,209 20,206 C20,203 22,201 25,201 C22,201 20,199 20,196 C20,193 22,191 25,191 C22,191 20,189 20,186 C20,183 22,181 25,181 C22,181 20,179 20,176 C20,173 22,171 25,171 C22,171 20,169 20,166 C20,163 22,161 25,161 C22,161 20,159 20,156 C20,153 22,151 25,151 C22,151 20,149 20,146 C20,143 22,141 25,141 C22,141 20,139 20,136 C20,133 22,131 25,131 C22,131 20,129 20,126 C20,123 22,121 25,121 C22,121 20,119 20,116 C20,113 22,111 25,111 C22,111 20,109 20,106 C20,103 22,101 25,101 C22,101 20,99 20,96 C20,93 22,91 25,91 C22,91 20,89 20,86 C20,83 22,81 25,81 C22,81 20,79 20,76 C20,73 22,71 25,71 C22,71 20,69 20,66 C20,63 22,61 25,61 C22,61 20,59 20,56 C20,53 22,51 25,51 C22,51 20,49 20,46 C20,43 22,41 25,41 C22,41 20,39 20,36 C20,33 22,31 25,31 " fill="#FFFFFF" style="stroke: #000000; stroke-width: 1.5;"/><text fill="#000000" font-family="Fira Mono" font-size="16" font-weight="bold" lengthAdjust="spacingAndGlyphs" textLength="427" x="87.5" y="51.8516">Phases d'écriture, de validation, de composition</text><text fill="#000000" font-family="Fira Mono" font-size="16" font-weight="bold" lengthAdjust="spacingAndGlyphs" textLength="322" x="140" y="70.4766">Versionnement des fichiers avec Git</text><text fill="#000000" font-family="Fira Mono" font-size="16" font-weight="bold" lengthAdjust="spacingAndGlyphs" textLength="0" x="304" y="89.1016"/><!--cluster content--><polygon fill="#FFFFFF" points="54,124,64,114,548,114,548,372,538,382,54,382,54,124" style="stroke: #000000; stroke-width: 1.5;"/><line style="stroke: #000000; stroke-width: 1.5;" x1="538" x2="547" y1="124" y2="115"/><line style="stroke: #000000; stroke-width: 1.5;" x1="54" x2="538" y1="124" y2="124"/><line style="stroke: #000000; stroke-width: 1.5;" x1="538" x2="538" y1="124" y2="382"/><text fill="#000000" font-family="Fira Mono" font-size="16" font-weight="bold" lengthAdjust="spacingAndGlyphs" textLength="85" x="254.5" y="141.8516">Contenus</text><!--entity texte--><polygon fill="#F8F8F8" points="78,174,88,164,324,164,324,221.25,314,231.25,78,231.25,78,174" style="stroke: #000000; stroke-width: 1.5;"/><line style="stroke: #000000; stroke-width: 1.5;" x1="314" x2="323" y1="174" y2="165"/><line style="stroke: #000000; stroke-width: 1.5;" x1="78" x2="314" y1="174" y2="174"/><line style="stroke: #000000; stroke-width: 1.5;" x1="314" x2="314" y1="174" y2="231.25"/><text fill="#000000" font-family="Fira Mono" font-size="16" lengthAdjust="spacingAndGlyphs" textLength="52" x="93" y="198.8516">Textes</text><text fill="#000000" font-family="Fira Mono" font-size="16" lengthAdjust="spacingAndGlyphs" textLength="206" x="93" y="217.4766">(langage de balisage léger)</text><!--entity media--><polygon fill="#F8F8F8" points="359,174,369,164,505,164,505,221.25,495,231.25,359,231.25,359,174" style="stroke: #000000; stroke-width: 1.5;"/><line style="stroke: #000000; stroke-width: 1.5;" x1="495" x2="504" y1="174" y2="165"/><line style="stroke: #000000; stroke-width: 1.5;" x1="359" x2="495" y1="174" y2="174"/><line style="stroke: #000000; stroke-width: 1.5;" x1="495" x2="495" y1="174" y2="231.25"/><text fill="#000000" font-family="Fira Mono" font-size="16" lengthAdjust="spacingAndGlyphs" textLength="53" x="374" y="198.8516">Médias</text><text fill="#000000" font-family="Fira Mono" font-size="16" lengthAdjust="spacingAndGlyphs" textLength="106" x="374" y="217.4766">(images, etc.)</text><!--entity data--><polygon fill="#F8F8F8" points="154.5,310,164.5,300,263.5,300,263.5,338.625,253.5,348.625,154.5,348.625,154.5,310" style="stroke: #000000; stroke-width: 1.5;"/><line style="stroke: #000000; stroke-width: 1.5;" x1="253.5" x2="262.5" y1="310" y2="301"/><line style="stroke: #000000; stroke-width: 1.5;" x1="154.5" x2="253.5" y1="310" y2="310"/><line style="stroke: #000000; stroke-width: 1.5;" x1="253.5" x2="253.5" y1="310" y2="348.625"/><text fill="#000000" font-family="Fira Mono" font-size="16" lengthAdjust="spacingAndGlyphs" textLength="69" x="169.5" y="334.8516">Données</text><!--entity styles--><polygon fill="#F8F8F8" points="315.5,301,325.5,291,484.5,291,484.5,348.25,474.5,358.25,315.5,358.25,315.5,301" style="stroke: #000000; stroke-width: 1.5;"/><line style="stroke: #000000; stroke-width: 1.5;" x1="474.5" x2="483.5" y1="301" y2="292"/><line style="stroke: #000000; stroke-width: 1.5;" x1="315.5" x2="474.5" y1="301" y2="301"/><line style="stroke: #000000; stroke-width: 1.5;" x1="474.5" x2="474.5" y1="301" y2="358.25"/><text fill="#000000" font-family="Fira Mono" font-size="16" lengthAdjust="spacingAndGlyphs" textLength="63" x="330.5" y="325.8516">Modèles</text><text fill="#000000" font-family="Fira Mono" font-size="16" lengthAdjust="spacingAndGlyphs" textLength="129" x="330.5" y="344.4766">(feuilles de style)</text><!--entity html--><path d="M515.5,583 C515.5,580 517.5,578 520.5,578 C523.5,578 525.5,580 525.5,583 C525.5,580 527.5,578 530.5,578 C533.5,578 535.5,580 535.5,583 C535.5,580 537.5,578 540.5,578 C543.5,578 545.5,580 545.5,583 C545.5,580 547.5,578 550.5,578 C553.5,578 555.5,580 555.5,583 C555.5,580 557.5,578 560.5,578 C563.5,578 565.5,580 565.5,583 C565.5,580 567.5,578 570.5,578 C573.5,578 575.5,580 575.5,583 C578.5,583 580.5,585 580.5,588 C580.5,591 578.5,593 575.5,593 C578.5,593 580.5,595 580.5,598 C580.5,601 578.5,603 575.5,603 C578.5,603 580.5,605 580.5,608 C580.5,611 578.5,613 575.5,613 C578.5,613 580.5,615 580.5,618 C580.5,621 578.5,623 575.5,623 C578.5,623 580.5,625 580.5,628 C580.5,631 578.5,633 575.5,633 C578.5,633 580.5,635 580.5,638 C580.5,641 578.5,643 575.5,643 C578.5,643 580.5,645 580.5,648 C580.5,651 578.5,653 575.5,653 C578.5,653 580.5,655 580.5,658 C580.5,661 578.5,663 575.5,663 C575.5,666 572.5,668 570.5,668 C567.5,668 565.5,666 565.5,663 C565.5,666 562.5,668 560.5,668 C557.5,668 555.5,666 555.5,663 C555.5,666 552.5,668 550.5,668 C547.5,668 545.5,666 545.5,663 C545.5,666 542.5,668 540.5,668 C537.5,668 535.5,666 535.5,663 C535.5,666 532.5,668 530.5,668 C527.5,668 525.5,666 525.5,663 C525.5,666 522.5,668 520.5,668 C517.5,668 515.5,666 515.5,663 C512.5,663 510.5,661 510.5,658 C510.5,655 512.5,653 515.5,653 C512.5,653 510.5,651 510.5,648 C510.5,645 512.5,643 515.5,643 C512.5,643 510.5,641 510.5,638 C510.5,635 512.5,633 515.5,633 C512.5,633 510.5,631 510.5,628 C510.5,625 512.5,623 515.5,623 C512.5,623 510.5,621 510.5,618 C510.5,615 512.5,613 515.5,613 C512.5,613 510.5,611 510.5,608 C510.5,605 512.5,603 515.5,603 C512.5,603 510.5,601 510.5,598 C510.5,595 512.5,593 515.5,593 C512.5,593 510.5,591 510.5,588 C510.5,585 512.5,583 515.5,583 " fill="#FFFFFF" style="stroke: #000000; stroke-width: 1.5;"/><text fill="#000000" font-family="Fira Mono" font-size="16" font-weight="bold" lengthAdjust="spacingAndGlyphs" textLength="49" x="522.5" y="600.8516">HTML</text><text fill="#000000" font-family="Fira Mono" font-size="16" font-weight="bold" lengthAdjust="spacingAndGlyphs" textLength="34" x="522.5" y="619.4766">CSS</text><text fill="#000000" font-family="Fira Mono" font-size="16" font-weight="bold" lengthAdjust="spacingAndGlyphs" textLength="17" x="522.5" y="638.1016">JS</text><text fill="#000000" font-family="Fira Mono" font-size="16" font-weight="bold" lengthAdjust="spacingAndGlyphs" textLength="44" x="522.5" y="656.7266">JSON</text><!--entity gss--><polygon fill="#F8F8F8" points="468,440,478,430,626,430,626,505.875,616,515.875,468,515.875,468,440" style="stroke: #000000; stroke-width: 1.5;"/><line style="stroke: #000000; stroke-width: 1.5;" x1="616" x2="625" y1="440" y2="431"/><line style="stroke: #000000; stroke-width: 1.5;" x1="468" x2="616" y1="440" y2="440"/><line style="stroke: #000000; stroke-width: 1.5;" x1="616" x2="616" y1="440" y2="515.875"/><text fill="#000000" font-family="Fira Mono" font-size="16" font-weight="bold" lengthAdjust="spacingAndGlyphs" textLength="102" x="483" y="464.8516">Processeur</text><text fill="#000000" font-family="Fira Mono" font-size="16" lengthAdjust="spacingAndGlyphs" textLength="88" x="483" y="483.4766">Générateur</text><text fill="#000000" font-family="Fira Mono" font-size="16" lengthAdjust="spacingAndGlyphs" textLength="118" x="483" y="502.1016">de site statique</text><!--entity procpdf--><polygon fill="#F8F8F8" points="259,600,269,590,477,590,477,647.25,467,657.25,259,657.25,259,600" style="stroke: #000000; stroke-width: 1.5;"/><line style="stroke: #000000; stroke-width: 1.5;" x1="467" x2="476" y1="600" y2="591"/><line style="stroke: #000000; stroke-width: 1.5;" x1="259" x2="467" y1="600" y2="600"/><line style="stroke: #000000; stroke-width: 1.5;" x1="467" x2="467" y1="600" y2="657.25"/><text fill="#000000" font-family="Fira Mono" font-size="16" font-weight="bold" lengthAdjust="spacingAndGlyphs" textLength="143" x="274" y="624.8516">Générateur PDF</text><text fill="#000000" font-family="Fira Mono" font-size="16" lengthAdjust="spacingAndGlyphs" textLength="178" x="274" y="643.4766">(Prince XML / paged.js)</text><ellipse cx="144.9478" cy="623.6896" fill="#F8F8F8" rx="78.9478" ry="18.1896" style="stroke: #383838; stroke-width: 1.5;"/><text fill="#000000" font-family="Fira Mono" font-size="16" lengthAdjust="spacingAndGlyphs" textLength="120" x="84.9478" y="629.5021">PDF imprimable</text><ellipse cx="665.9619" cy="623.6699" fill="#F8F8F8" rx="48.9619" ry="16.1699" style="stroke: #383838; stroke-width: 1.5;"/><text fill="#000000" font-family="Fira Mono" font-size="16" lengthAdjust="spacingAndGlyphs" textLength="65" x="633.4619" y="629.4824">Site web</text><ellipse cx="546.9056" cy="747.1699" fill="#F8F8F8" rx="33.4056" ry="16.1699" style="stroke: #383838; stroke-width: 1.5;"/><text fill="#000000" font-family="Fira Mono" font-size="16" lengthAdjust="spacingAndGlyphs" textLength="43" x="525.4056" y="752.9824">EPUB</text><!--link texte to media--><path d="M324.17,197.5 C335.683,197.5 347.196,197.5 358.709,197.5 " fill="none" id="texte-media" style="stroke: #383838; stroke-width: 1.0;"/><!--link texte to data--><path d="M203.081,231.016 C204.461,252.573 206.239,280.366 207.485,299.833 " fill="none" id="texte-data" style="stroke: #383838; stroke-width: 1.0;"/><!--link media to styles--><path d="M423.676,231.016 C418.972,249.39 413.109,272.294 408.394,290.713 " fill="none" id="media-styles" style="stroke: #383838; stroke-width: 1.0;"/><!--link data to styles--><path d="M263.838,324.5 C281.035,324.5 298.233,324.5 315.431,324.5 " fill="none" id="data-styles" style="stroke: #383838; stroke-width: 1.0;"/><!--link content to gss--><path d="M544.7174,382.81 C544.7268,383.1765 544.7361,383.5425 544.7455,383.908 C544.8203,386.8317 544.8943,389.7213 544.9672,392.5704 C545.2589,403.9668 545.534,414.7146 545.782,424.404 " fill="none" id="content-gss" style="stroke: #383838; stroke-width: 1.0;"/><polygon fill="#383838" points="545.922,429.865,549.6919,420.7662,545.7949,424.8666,541.6944,420.9696,545.922,429.865" style="stroke: #383838; stroke-width: 1.0;"/><!--link gss to html--><path d="M547,516.157 C547,533.02 547,552.617 547,570.361 " fill="none" id="gss-html" style="stroke: #383838; stroke-width: 1.0;"/><polygon fill="#383838" points="547,575.803,551,566.803,547,570.803,543,566.803,547,575.803" style="stroke: #383838; stroke-width: 1.0;"/><!--link procpdf to html--><path d="M482.308,623.5 C492.31,623.5 502.311,623.5 512.312,623.5 " fill="none" id="procpdf-html" style="stroke: #383838; stroke-width: 1.0;"/><polygon fill="#383838" points="477.078,623.5,486.078,627.5,482.078,623.5,486.078,619.5,477.078,623.5" style="stroke: #383838; stroke-width: 1.0;"/><!--link PDF imprimable to procpdf--><path d="M229.395,623.5 C239.196,623.5 248.997,623.5 258.799,623.5 " fill="none" id="PDF imprimable-procpdf" style="stroke: #383838; stroke-width: 1.0;"/><polygon fill="#383838" points="224.27,623.5,233.27,627.5,229.27,623.5,233.27,619.5,224.27,623.5" style="stroke: #383838; stroke-width: 1.0;"/><!--link html to Site web--><path d="M581.863,623.5 C591.752,623.5 601.641,623.5 611.53,623.5 " fill="none" id="html-Site web" style="stroke: #383838; stroke-width: 1.0;"/><polygon fill="#383838" points="616.701,623.5,607.701,619.5,611.701,623.5,607.701,627.5,616.701,623.5" style="stroke: #383838; stroke-width: 1.0;"/><!--link html to EPUB--><path d="M547,671.1276 C547,689.9617 547,710.713 547,725.5831 " fill="none" id="html-EPUB" style="stroke: #383838; stroke-width: 1.0;"/><polygon fill="#383838" points="547,730.781,551,721.781,547,725.781,543,721.781,547,730.781" style="stroke: #383838; stroke-width: 1.0;"/><!--
@startuml
skinparam monochrome true
skinparam defaultFontSize 16
skinparam defaultFontName Fira Mono
skinparam shadowing false
top to bottom direction

cloud "Phases d'écriture, de validation, de composition\nVersionnement des fichiers avec Git\n" {

node Contenus as content {
  node "Textes\n(langage de balisage léger)" as texte
  node "Médias\n(images, etc.)" as media
  node "Données" as data
  node "Modèles\n(feuilles de style)" as styles
}

}

texte -right- media
texte -down- data
media -down- styles
data -right- styles

node "**Processeur**\nGénérateur\nde site statique" as gss
node "**Générateur PDF**\n(Prince XML / paged.js)" as procpdf

cloud "**HTML**\n**CSS**\n**JS**\n**JSON**" as html {

}

content -down- -> gss
gss -down-> html
html -left-> procpdf
procpdf -left-> (PDF imprimable)
html -right-> (Site web)
html -down-> (EPUB)
@enduml

PlantUML version 1.2018.11beta1(Unknown compile time)
(GPL source distribution)
Java Runtime: Java(TM) SE Runtime Environment
JVM: Java HotSpot(TM) 64-Bit Server VM
Java Version: 1.7.0_25-b15
Operating System: Linux
Default Encoding: UTF-8
Language: en
Country: US
--></g></svg>